<mxfile host="app.diagrams.net" modified="2023-10-07T18:57:10.904Z" agent="Mozilla/5.0 (Windows NT 10.0; Win64; x64) AppleWebKit/537.36 (KHTML, like Gecko) Chrome/117.0.0.0 Safari/537.36" etag="wkcT25sDAOogg-iBNeZE" version="22.0.4" type="device">
  <diagram id="C8anD-XqKxPfGQLpzSZr" name="Сторінка-1">
    <mxGraphModel dx="1167" dy="650" grid="1" gridSize="10" guides="1" tooltips="1" connect="1" arrows="1" fold="1" page="1" pageScale="1" pageWidth="827" pageHeight="1169" math="0" shadow="0">
      <root>
        <mxCell id="0" />
        <mxCell id="1" parent="0" />
        <mxCell id="5pZri7z7FDz3dqG9HhkD-6" style="edgeStyle=orthogonalEdgeStyle;rounded=0;orthogonalLoop=1;jettySize=auto;html=1;" edge="1" parent="1" source="5pZri7z7FDz3dqG9HhkD-1" target="5pZri7z7FDz3dqG9HhkD-5">
          <mxGeometry relative="1" as="geometry" />
        </mxCell>
        <mxCell id="5pZri7z7FDz3dqG9HhkD-1" value="Start" style="ellipse;whiteSpace=wrap;html=1;" vertex="1" parent="1">
          <mxGeometry x="340" y="20" width="120" height="80" as="geometry" />
        </mxCell>
        <mxCell id="5pZri7z7FDz3dqG9HhkD-9" style="edgeStyle=orthogonalEdgeStyle;rounded=0;orthogonalLoop=1;jettySize=auto;html=1;exitX=0.5;exitY=1;exitDx=0;exitDy=0;" edge="1" parent="1" source="5pZri7z7FDz3dqG9HhkD-2" target="5pZri7z7FDz3dqG9HhkD-8">
          <mxGeometry relative="1" as="geometry" />
        </mxCell>
        <mxCell id="5pZri7z7FDz3dqG9HhkD-2" value="&lt;font style=&quot;font-size: 11px;&quot;&gt;Input N&lt;/font&gt;" style="shape=parallelogram;perimeter=parallelogramPerimeter;whiteSpace=wrap;html=1;fixedSize=1;" vertex="1" parent="1">
          <mxGeometry x="340" y="250" width="120" height="60" as="geometry" />
        </mxCell>
        <mxCell id="5pZri7z7FDz3dqG9HhkD-7" style="edgeStyle=orthogonalEdgeStyle;rounded=0;orthogonalLoop=1;jettySize=auto;html=1;" edge="1" parent="1" source="5pZri7z7FDz3dqG9HhkD-5" target="5pZri7z7FDz3dqG9HhkD-2">
          <mxGeometry relative="1" as="geometry" />
        </mxCell>
        <mxCell id="5pZri7z7FDz3dqG9HhkD-5" value="Initialize N&lt;br&gt;Initialize sum to 0&lt;br&gt;Initialize digit" style="rounded=0;whiteSpace=wrap;html=1;" vertex="1" parent="1">
          <mxGeometry x="340" y="140" width="120" height="60" as="geometry" />
        </mxCell>
        <mxCell id="5pZri7z7FDz3dqG9HhkD-11" style="edgeStyle=orthogonalEdgeStyle;rounded=0;orthogonalLoop=1;jettySize=auto;html=1;" edge="1" parent="1" source="5pZri7z7FDz3dqG9HhkD-8" target="5pZri7z7FDz3dqG9HhkD-10">
          <mxGeometry relative="1" as="geometry" />
        </mxCell>
        <mxCell id="5pZri7z7FDz3dqG9HhkD-24" style="edgeStyle=orthogonalEdgeStyle;rounded=0;orthogonalLoop=1;jettySize=auto;html=1;" edge="1" parent="1" source="5pZri7z7FDz3dqG9HhkD-8" target="5pZri7z7FDz3dqG9HhkD-26">
          <mxGeometry relative="1" as="geometry">
            <mxPoint x="700" y="990" as="targetPoint" />
            <Array as="points">
              <mxPoint x="660" y="370" />
              <mxPoint x="660" y="920" />
              <mxPoint x="460" y="920" />
            </Array>
          </mxGeometry>
        </mxCell>
        <mxCell id="5pZri7z7FDz3dqG9HhkD-8" value="while N &amp;gt; 0" style="rhombus;whiteSpace=wrap;html=1;" vertex="1" parent="1">
          <mxGeometry x="325" y="330" width="150" height="80" as="geometry" />
        </mxCell>
        <mxCell id="5pZri7z7FDz3dqG9HhkD-15" style="edgeStyle=orthogonalEdgeStyle;rounded=0;orthogonalLoop=1;jettySize=auto;html=1;" edge="1" parent="1" source="5pZri7z7FDz3dqG9HhkD-10" target="5pZri7z7FDz3dqG9HhkD-14">
          <mxGeometry relative="1" as="geometry" />
        </mxCell>
        <mxCell id="5pZri7z7FDz3dqG9HhkD-10" value="&amp;nbsp; digit = N % 10;" style="rounded=0;whiteSpace=wrap;html=1;" vertex="1" parent="1">
          <mxGeometry x="340" y="440" width="120" height="60" as="geometry" />
        </mxCell>
        <mxCell id="5pZri7z7FDz3dqG9HhkD-12" value="true" style="text;html=1;strokeColor=none;fillColor=none;align=center;verticalAlign=middle;whiteSpace=wrap;rounded=0;" vertex="1" parent="1">
          <mxGeometry x="400" y="410" width="60" height="30" as="geometry" />
        </mxCell>
        <mxCell id="5pZri7z7FDz3dqG9HhkD-19" style="edgeStyle=orthogonalEdgeStyle;rounded=0;orthogonalLoop=1;jettySize=auto;html=1;" edge="1" parent="1" source="5pZri7z7FDz3dqG9HhkD-14" target="5pZri7z7FDz3dqG9HhkD-16">
          <mxGeometry relative="1" as="geometry" />
        </mxCell>
        <mxCell id="5pZri7z7FDz3dqG9HhkD-14" value="digit &amp;gt; 2 &amp;amp;&amp;amp; digit % 2 != 0" style="rhombus;whiteSpace=wrap;html=1;" vertex="1" parent="1">
          <mxGeometry x="317.5" y="530" width="165" height="80" as="geometry" />
        </mxCell>
        <mxCell id="5pZri7z7FDz3dqG9HhkD-22" style="edgeStyle=orthogonalEdgeStyle;rounded=0;orthogonalLoop=1;jettySize=auto;html=1;" edge="1" parent="1" source="5pZri7z7FDz3dqG9HhkD-16" target="5pZri7z7FDz3dqG9HhkD-21">
          <mxGeometry relative="1" as="geometry" />
        </mxCell>
        <mxCell id="5pZri7z7FDz3dqG9HhkD-16" value="sum += digit;" style="rounded=0;whiteSpace=wrap;html=1;" vertex="1" parent="1">
          <mxGeometry x="520" y="610" width="120" height="60" as="geometry" />
        </mxCell>
        <mxCell id="5pZri7z7FDz3dqG9HhkD-20" value="yes" style="text;html=1;strokeColor=none;fillColor=none;align=center;verticalAlign=middle;whiteSpace=wrap;rounded=0;" vertex="1" parent="1">
          <mxGeometry x="470" y="540" width="60" height="30" as="geometry" />
        </mxCell>
        <mxCell id="5pZri7z7FDz3dqG9HhkD-23" style="edgeStyle=orthogonalEdgeStyle;rounded=0;orthogonalLoop=1;jettySize=auto;html=1;entryX=0;entryY=0.5;entryDx=0;entryDy=0;" edge="1" parent="1" source="5pZri7z7FDz3dqG9HhkD-21" target="5pZri7z7FDz3dqG9HhkD-8">
          <mxGeometry relative="1" as="geometry">
            <mxPoint x="370" y="810" as="sourcePoint" />
            <Array as="points">
              <mxPoint x="470" y="890" />
              <mxPoint x="290" y="890" />
              <mxPoint x="290" y="370" />
            </Array>
          </mxGeometry>
        </mxCell>
        <mxCell id="5pZri7z7FDz3dqG9HhkD-21" value="N /= 10;" style="rounded=0;whiteSpace=wrap;html=1;" vertex="1" parent="1">
          <mxGeometry x="410" y="790" width="120" height="60" as="geometry" />
        </mxCell>
        <mxCell id="5pZri7z7FDz3dqG9HhkD-29" style="edgeStyle=orthogonalEdgeStyle;rounded=0;orthogonalLoop=1;jettySize=auto;html=1;" edge="1" parent="1" source="5pZri7z7FDz3dqG9HhkD-26" target="5pZri7z7FDz3dqG9HhkD-28">
          <mxGeometry relative="1" as="geometry" />
        </mxCell>
        <mxCell id="5pZri7z7FDz3dqG9HhkD-26" value="output sum" style="shape=parallelogram;perimeter=parallelogramPerimeter;whiteSpace=wrap;html=1;fixedSize=1;" vertex="1" parent="1">
          <mxGeometry x="400" y="960" width="120" height="60" as="geometry" />
        </mxCell>
        <mxCell id="5pZri7z7FDz3dqG9HhkD-27" value="false" style="text;html=1;strokeColor=none;fillColor=none;align=center;verticalAlign=middle;whiteSpace=wrap;rounded=0;" vertex="1" parent="1">
          <mxGeometry x="530" y="340" width="60" height="30" as="geometry" />
        </mxCell>
        <mxCell id="5pZri7z7FDz3dqG9HhkD-28" value="end" style="ellipse;whiteSpace=wrap;html=1;" vertex="1" parent="1">
          <mxGeometry x="400" y="1060" width="120" height="80" as="geometry" />
        </mxCell>
      </root>
    </mxGraphModel>
  </diagram>
</mxfile>
